<?xml version="1.0" encoding="UTF-8"?>
<svg width="88px" height="66px" viewBox="0 0 88 66" version="1.1" xmlns="http://www.w3.org/2000/svg" xmlns:xlink="http://www.w3.org/1999/xlink">
    <!-- Generator: Sketch 48.2 (47327) - http://www.bohemiancoding.com/sketch -->
    <title>Artboard</title>
    <desc>Created with Sketch.</desc>
    <defs></defs>
    <g id="Page-1" stroke="none" stroke-width="1" fill="none" fill-rule="evenodd">
        <g id="Artboard" fill="#111111">
            <path d="M21.688,73.528 C20.9493296,73.528 20.3030028,73.2510028 19.749,72.697 C19.1949972,72.1429972 18.918,71.4505042 18.918,70.6195 L18.918,64.941 C18.918,64.0176621 19.148831,63.2328366 19.6105,62.5865 C20.072169,61.9401634 20.9031607,61.2015042 22.1035,60.3705 L59.4985,34.748 L22.1035,9.1255 C20.9954945,8.38682964 20.1875859,7.69433656 19.67975,7.048 C19.1719141,6.40166343 18.918,5.57067175 18.918,4.555 L18.918,-1.1235 C18.918,-1.95450415 19.1719141,-2.62391413 19.67975,-3.13175 C20.1875859,-3.63958587 20.8569958,-3.8935 21.688,-3.8935 C22.2420028,-3.8935 22.9114127,-3.68575208 23.69625,-3.27025 C24.4810873,-2.85474792 24.9658324,-2.60083379 25.1505,-2.5085 L68.3625,27.269 C69.8398407,28.2846717 70.8785803,29.2772452 71.47875,30.24675 C72.0789197,31.2162548 72.379,32.3473269 72.379,33.64 L72.379,35.9945 C72.379,37.2871731 72.0789197,38.4182452 71.47875,39.38775 C70.8785803,40.3572548 69.8398407,41.3036621 68.3625,42.227 L25.1505,72.0045 C23.6731593,73.0201717 22.5190042,73.528 21.688,73.528 Z" id="&gt;" transform="translate(45.648500, 34.817250) rotate(-270.000000) translate(-45.648500, -34.817250) "></path>
        </g>
    </g>
</svg>