<?xml version="1.0" encoding="UTF-8"?>
<svg width="9px" height="9px" viewBox="0 0 9 9" version="1.1" xmlns="http://www.w3.org/2000/svg" xmlns:xlink="http://www.w3.org/1999/xlink">
    <!-- Generator: Sketch 48.2 (47327) - http://www.bohemiancoding.com/sketch -->
    <title>Artboard</title>
    <desc>Created with Sketch.</desc>
    <defs></defs>
    <g id="Page-1" stroke="none" stroke-width="1" fill="none" fill-rule="evenodd">
        <g id="Artboard" fill="#FFFFFF">
            <path d="M1.8,9.07826087 C1.27825826,9.07826087 0.847827783,8.90869735 0.508695652,8.56956522 C0.169563522,8.23043309 0,7.80000261 0,7.27826087 L0,1.87826087 C0,1.35651913 0.169563522,0.913045304 0.508695652,0.547826087 C0.847827783,0.18260687 1.27825826,0 1.8,0 L7.2,0 C7.72174174,0 8.15217222,0.18260687 8.49130435,0.547826087 C8.83043648,0.913045304 9,1.35651913 9,1.87826087 L9,7.27826087 C9,7.80000261 8.83043648,8.23043309 8.49130435,8.56956522 C8.15217222,8.90869735 7.72174174,9.07826087 7.2,9.07826087 L1.8,9.07826087 Z" id="."></path>
        </g>
    </g>
</svg>